# File created by Blade
# Date/Time:  Tue Jan 27 20:02:46 2015
#---------------------------------------------------------
:version 1.10
:name HOM
:units
  mass 1.0
  length 1.000000
  angle deg
:documentation
     Acclaim Skeleton File
:root
   axis xyz
   order TX TY TZ RX RY RZ
   position 0.000000 0.000000 0.000000
   orientation 0 0 0
:bonedata
   begin
      id 1
      name Spine_dum
      direction 0.000000 1.000000 0.000000
      length 6.116652
      axis 0.0 0.0 0.0 xyz
   end
   begin
      id 2
      name LeftUpLeg_dum
      direction 1.000000 0.000000 0.000000
      length 4.711765
      axis 0.0 0.0 0.0 xyz
   end
   begin
      id 3
      name RightUpLeg_dum
      direction -1.000000 0.000000 0.000000
      length 4.711765
      axis 0.0 0.0 0.0 xyz
   end
   begin
      id 4
      name Spine
      direction 0.000000 1.000000 0.000000
      length 0.000000
      axis 0.0 0.0 0.0 xyz
      dof rx ry rz
   end
   begin
      id 5
      name Spine_dum1
      direction 0.000000 1.000000 0.000000
      length 15.225563
      axis 0.0 0.0 0.0 xyz
   end
   begin
      id 6
      name Spine_dum2
      direction 0.000000 1.000000 0.000000
      length 8.977654
      axis 0.0 0.0 0.0 xyz
   end
   begin
      id 7
      name Spine_dum3
      direction 0.000000 1.000000 0.000000
      length 8.977654
      axis 0.0 0.0 0.0 xyz
   end
   begin
      id 8
      name Head
      direction 0.000000 1.000000 0.000000
      length 4.527550
      axis 0.0 0.0 0.0 xyz
      dof rx ry rz
   end
   begin
      id 9
      name LeftShoulder
      direction 1.000000 0.000000 0.000000
      length 7.110130
      axis 0.0 0.0 -90.0 xyz
      dof rx ry rz
   end
   begin
      id 10
      name LeftArm
      direction 1.000000 0.000000 0.000000
      length 10.398341
      axis 0.0 0.0 -90.0 xyz
      dof rx ry rz
   end
   begin
      id 11
      name LeftForeArm
      direction 1.000000 0.000000 0.000000
      length 8.888997
      axis 0.0 0.0 -90.0 xyz
      dof ry rz rx
   end
   begin
      id 12
      name LeftHand
      direction 0.000000 0.000000 0.000000
      length 0.000000
      axis 0.0 0.0 -90.0 xyz
      dof rx ry rz
   end
   begin
      id 13
      name LeftHand_dum1
      direction 0.000000 0.000000 0.000000
      length 0.000000
      axis 0.0 0.0 -90.0 xyz
   end
   begin
      id 14
      name LeftHand_dum2
      direction 1.000000 0.000000 0.000000
      length 3.937000
      axis 0.0 0.0 -90.0 xyz
   end
   begin
      id 15
      name LeftHandThumb1
      direction 0.000000 0.000000 1.000000
      length 3.937000
      axis 0.0 0.0 -90.0 xyz
      dof rx rz ry
   end
   begin
      id 16
      name RightShoulder
      direction -1.000000 0.000000 0.000000
      length 7.110130
      axis 0.0 0.0 90.0 xyz
      dof rx ry rz
   end
   begin
      id 17
      name RightArm
      direction -1.000000 0.000000 0.000000
      length 10.398341
      axis 0.0 0.0 90.0 xyz
      dof rx ry rz
   end
   begin
      id 18
      name RightForeArm
      direction -1.000000 0.000000 0.000000
      length 8.888997
      axis 0.0 0.0 90.0 xyz
      dof ry rz rx
   end
   begin
      id 19
      name RightHand
      direction 0.000000 0.000000 0.000000
      length 0.000000
      axis 0.0 0.0 90.0 xyz
      dof rx ry rz
   end
   begin
      id 20
      name RightHand_dum1
      direction 0.000000 0.000000 0.000000
      length 0.000000
      axis 0.0 0.0 90.0 xyz
   end
   begin
      id 21
      name RightHand_dum2
      direction -1.000000 0.000000 0.000000
      length 3.937000
      axis 0.0 0.0 90.0 xyz
   end
   begin
      id 22
      name RightHandThumb1
      direction 0.000000 0.000000 1.000000
      length 3.937000
      axis 0.0 0.0 90.0 xyz
      dof rx rz ry
   end
   begin
      id 23
      name LeftUpLeg
      direction 0.000000 -1.000000 0.000000
      length 15.510451
      axis 0.0 0.0 0.0 xyz
      dof rx ry rz
   end
   begin
      id 24
      name LeftLeg
      direction 0.000000 -1.000000 0.000000
      length 14.858061
      axis 0.0 0.0 0.0 xyz
      dof rx ry rz
   end
   begin
      id 25
      name LeftFoot
      direction 0.000000 -0.258819 0.965926
      length 5.128852
      axis 15.0 0.0 0.0 xyz
      dof rx ry rz
   end
   begin
      id 26
      name LeftToeBase
      direction 0.000000 0.000000 1.000000
      length 2.952750
      axis 0.0 0.0 0.0 xyz
      dof rx ry rz
   end
   begin
      id 27
      name RightUpLeg
      direction 0.000000 -1.000000 0.000000
      length 15.510451
      axis 0.0 0.0 0.0 xyz
      dof rx ry rz
   end
   begin
      id 28
      name RightLeg
      direction 0.000000 -1.000000 0.000000
      length 14.858061
      axis 0.0 0.0 0.0 xyz
      dof rx ry rz
   end
   begin
      id 29
      name RightFoot
      direction 0.000000 -0.258819 0.965926
      length 5.128852
      axis 15.0 0.0 0.0 xyz
      dof rx ry rz
   end
   begin
      id 30
      name RightToeBase
      direction 0.000000 0.000000 1.000000
      length 2.952750
      axis 0.0 0.0 0.0 xyz
      dof rx ry rz
   end
:hierarchy
   begin
      root Spine_dum LeftUpLeg_dum RightUpLeg_dum
      Spine_dum Spine
      LeftUpLeg_dum LeftUpLeg
      RightUpLeg_dum RightUpLeg
      Spine Spine_dum1 Spine_dum2 Spine_dum3
      Spine_dum1 Head
      Spine_dum2 LeftShoulder
      Spine_dum3 RightShoulder
      LeftShoulder LeftArm
      LeftArm LeftForeArm
      LeftForeArm LeftHand
      LeftHand LeftHand_dum1 LeftHand_dum2
      LeftHand_dum1 LeftHandThumb1
      RightShoulder RightArm
      RightArm RightForeArm
      RightForeArm RightHand
      RightHand RightHand_dum1 RightHand_dum2
      RightHand_dum1 RightHandThumb1
      LeftUpLeg LeftLeg
      LeftLeg LeftFoot
      LeftFoot LeftToeBase
      RightUpLeg RightLeg
      RightLeg RightFoot
      RightFoot RightToeBase
   end

# File created by Blade
# Date/Time:  Tue Jan 27 20:02:37 2015
# Frame Rate: 120.000 fps
#------------------------------------------------------
:FULLY-SPECIFIED
:DEGREES
1320
root 6.572925 32.520763 4.003017 -6.416489 -4.104127 -6.890582
Spine 10.824705 9.643033 2.292795
Head 8.257344 -7.331825 5.891811
LeftShoulder -13.666472 -2.827904 29.815282
LeftArm -4.580944 -10.389745 -79.162525
LeftForeArm -9.960741 -0.000000 116.697675
LeftHand 10.999287 -0.000000 -4.672348
LeftHandThumb1 -26.253704 0.000000 33.147579
RightShoulder -18.904198 -14.437281 -20.391405
RightArm 12.447666 -23.150068 89.506241
RightForeArm -12.032073 0.000000 11.906913
RightHand 17.832100 -0.000000 5.532010
RightHandThumb1 -24.326973 -0.000000 -32.862282
LeftUpLeg 12.511919 4.184999 -0.782608
LeftLeg -1.185946 -0.000000 0.000000
LeftFoot -18.009477 18.722377 -15.978477
LeftToeBase 18.521196 -0.000000 -0.000000
RightUpLeg -58.040326 4.542650 18.578185
RightLeg 108.478814 -0.000000 -0.000000
RightFoot 26.750297 -22.417189 6.568803
RightToeBase 17.060854 -0.000000 -0.000000
1321
root 6.577698 32.512987 3.997279 -6.360245 -4.185337 -6.797124
Spine 10.786648 9.675453 2.200939
Head 8.300906 -7.280076 5.790132
LeftShoulder -13.709591 -2.759277 29.792381
LeftArm -4.595786 -10.506949 -79.033021
LeftForeArm -10.097657 -0.000000 116.696582
LeftHand 11.009362 0.000000 -4.641709
LeftHandThumb1 -26.253704 0.000000 33.147579
RightShoulder -18.882177 -14.392165 -20.446311
RightArm 12.473776 -23.254418 89.508588
RightForeArm -11.958907 -0.000000 11.931970
RightHand 17.617578 0.000000 5.309947
RightHandThumb1 -24.326973 -0.000000 -32.862282
LeftUpLeg 12.460532 4.140634 -0.906441
LeftLeg -1.209894 -0.000000 0.000000
LeftFoot -18.041241 18.834476 -16.008759
LeftToeBase 18.570597 -0.000000 -0.000000
RightUpLeg -57.663876 4.662190 18.282480
RightLeg 107.801715 -0.000000 -0.000000
RightFoot 26.124039 -22.661101 6.452630
RightToeBase 17.330104 -0.000000 -0.000000
1322
root 6.577089 32.508829 3.996777 -6.351082 -4.242540 -6.754783
Spine 10.794085 9.653654 2.165726
Head 8.353551 -7.210554 5.671982
LeftShoulder -13.770457 -2.658438 29.752124
LeftArm -4.579471 -10.620291 -78.910850
LeftForeArm -10.208812 -0.000000 116.688771
LeftHand 10.896462 -0.000000 -4.776555
LeftHandThumb1 -26.253704 0.000000 33.147579
RightShoulder -18.836946 -14.345755 -20.519612
RightArm 12.471924 -23.253965 89.553744
RightForeArm -11.946948 0.000000 11.927360
RightHand 17.793997 -0.000000 5.313596
RightHandThumb1 -24.326973 -0.000000 -32.862282
LeftUpLeg 12.449338 4.082977 -0.959219
LeftLeg -1.192670 -0.000000 0.000000
LeftFoot -18.091842 18.874543 -16.080894
LeftToeBase 18.602328 -0.000000 -0.000000
RightUpLeg -57.226838 4.746987 18.056353
RightLeg 107.089033 -0.000000 -0.000000
RightFoot 25.737998 -22.946283 6.151400
RightToeBase 16.729806 -0.000000 -0.000000
1323
root 6.581405 32.500928 3.993618 -6.325000 -4.311056 -6.657120
Spine 10.785968 9.649267 2.071982
Head 8.389054 -7.118232 5.574120
LeftShoulder -13.824898 -2.586367 29.731317
LeftArm -4.607032 -10.750360 -78.785643
LeftForeArm -10.390055 -0.000000 116.679659
LeftHand 10.978670 -0.000000 -5.014776
LeftHandThumb1 -26.253704 0.000000 33.147579
RightShoulder -18.786605 -14.323955 -20.590357
RightArm 12.474391 -23.232445 89.592855
RightForeArm -11.949477 -0.000000 11.981175
RightHand 17.796953 0.000000 5.479720
RightHandThumb1 -24.326973 -0.000000 -32.862282
LeftUpLeg 12.413146 4.049133 -1.079700
LeftLeg -1.180680 -0.000000 0.000000
LeftFoot -18.116149 18.944153 -16.090925
LeftToeBase 18.614504 -0.000000 -0.000000
RightUpLeg -56.840852 4.931771 17.711641
RightLeg 106.460615 -0.000000 -0.000000
RightFoot 25.295129 -23.052955 6.055786
RightToeBase 16.762178 -0.000000 -0.000000
1324
root 6.583349 32.496475 3.993045 -6.327168 -4.341257 -6.604499
Spine 10.807685 9.596129 2.036074
Head 8.435622 -7.023137 5.456287
LeftShoulder -13.885479 -2.519011 29.681553
LeftArm -4.619153 -10.847017 -78.661163
LeftForeArm -10.583650 -0.000000 116.674251
LeftHand 11.001469 -0.000000 -5.181058
LeftHandThumb1 -26.253704 0.000000 33.147579
RightShoulder -18.735752 -14.263167 -20.661576
RightArm 12.478632 -23.286499 89.621373
RightForeArm -11.938003 -0.000000 11.951712
RightHand 17.802912 0.000000 5.303019
RightHandThumb1 -24.326973 -0.000000 -32.862282
LeftUpLeg 12.408649 3.990347 -1.150073
LeftLeg -1.170331 -0.000000 0.000000
LeftFoot -18.145355 19.017870 -16.102214
LeftToeBase 18.591361 -0.000000 -0.000000
RightUpLeg -56.427416 5.072132 17.416964
RightLeg 105.814390 -0.000000 -0.000000
RightFoot 25.086895 -23.124714 5.878377
RightToeBase 16.790461 -0.000000 -0.000000
1325
root 6.587155 32.490371 3.991209 -6.312705 -4.368705 -6.523449
Spine 10.810397 9.562769 1.967040
Head 8.465843 -6.945404 5.349177
LeftShoulder -13.943659 -2.452971 29.649583
LeftArm -4.612303 -10.917585 -78.562154
LeftForeArm -10.747319 -0.000000 116.654444
LeftHand 11.105667 -0.000000 -5.341541
LeftHandThumb1 -26.253704 0.000000 33.147579
RightShoulder -18.690483 -14.237018 -20.729746
RightArm 12.465880 -23.294037 89.665033
RightForeArm -11.992029 0.000000 11.967601
RightHand 17.827629 -0.000000 5.229975
RightHandThumb1 -24.326973 -0.000000 -32.862282
LeftUpLeg 12.380511 3.948769 -1.248156
LeftLeg -1.154745 -0.000000 0.000000
LeftFoot -18.159016 19.054333 -16.114355
LeftToeBase 18.688389 -0.000000 -0.000000
RightUpLeg -56.071027 5.316712 17.029217
RightLeg 105.230193 -0.000000 -0.000000
RightFoot 25.174108 -22.829855 5.588290
RightToeBase 16.473041 -0.000000 -0.000000
1326
root 6.594958 32.483697 3.989622 -6.296775 -4.389107 -6.433353
Spine 10.807549 9.536626 1.908787
Head 8.509344 -6.876318 5.216874
LeftShoulder -13.990899 -2.421179 29.614864
LeftArm -4.627418 -10.953830 -78.480876
LeftForeArm -10.844876 -0.000000 116.636481
LeftHand 11.109344 -0.000000 -5.340453
LeftHandThumb1 -26.253704 0.000000 33.147579
RightShoulder -18.651192 -14.211148 -20.810343
RightArm 12.432148 -23.323117 89.700620
RightForeArm -12.003875 -0.000000 11.988095
RightHand 17.870114 -0.000000 5.119956
RightHandThumb1 -24.326973 -0.000000 -32.862282
LeftUpLeg 12.359776 3.914036 -1.360432
LeftLeg -1.157341 -0.000000 0.000000
LeftFoot -18.135205 19.066278 -16.110935
LeftToeBase 18.539495 -0.000000 -0.000000
RightUpLeg -55.733805 5.528200 16.652045
RightLeg 104.642854 -0.000000 -0.000000
RightFoot 25.519094 -22.619601 5.265636
RightToeBase 15.750356 -0.000000 -0.000000
1327
root 6.597940 32.479282 3.989308 -6.279187 -4.370668 -6.373035
Spine 10.798415 9.499332 1.871147
Head 8.556348 -6.832386 5.111160
LeftShoulder -14.025421 -2.397051 29.577853
LeftArm -4.613675 -10.967991 -78.402087
LeftForeArm -10.900062 -0.000000 116.604137
LeftHand 11.149570 -0.000000 -5.307391
LeftHandThumb1 -26.253704 0.000000 33.147579
RightShoulder -18.630624 -14.210550 -20.860477
RightArm 12.406376 -23.360192 89.729023
RightForeArm -12.033456 -0.000000 11.989687
RightHand 17.916797 -0.000000 4.921819
RightHandThumb1 -24.326973 -0.000000 -32.862282
LeftUpLeg 12.339738 3.879376 -1.428825
LeftLeg -1.154705 -0.000000 0.000000
LeftFoot -18.138833 19.033850 -16.125109
LeftToeBase 19.120672 -0.000000 -0.000000
RightUpLeg -55.412812 5.754246 16.304409
RightLeg 104.069285 -0.000000 -0.000000
RightFoot 25.809815 -22.642402 5.259430
RightToeBase 15.909924 -0.000000 -0.000000
1328
root 6.597588 32.475353 3.990793 -6.237642 -4.349548 -6.298375
Spine 10.738594 9.480476 1.792180
Head 8.628878 -6.792877 5.048152
LeftShoulder -14.050987 -2.360433 29.569466
LeftArm -4.582428 -10.971654 -78.342685
LeftForeArm -10.935902 -0.000000 116.553467
LeftHand 11.145975 0.000000 -5.268525
LeftHandThumb1 -26.253704 0.000000 33.147579
RightShoulder -18.626071 -14.254345 -20.872274
RightArm 12.400782 -23.365753 89.756704
RightForeArm -12.042522 -0.000000 11.974804
RightHand 17.951012 -0.000000 4.812021
RightHandThumb1 -24.326973 -0.000000 -32.862282
LeftUpLeg 12.316129 3.896445 -1.487384
LeftLeg -1.202883 -0.000000 0.000000
LeftFoot -18.102990 18.945551 -16.183398
LeftToeBase 18.674760 -0.000000 -0.000000
RightUpLeg -55.124796 6.021446 15.943989
RightLeg 103.523380 -0.000000 -0.000000
RightFoot 26.202728 -22.856402 5.359644
RightToeBase 16.010974 -0.000000 -0.000000
